<?xml version="1.0" encoding="UTF-8" standalone="no"?>
<!-- Created with Inkscape (http://www.inkscape.org/) -->

<svg
   version="1.1"
   id="svg1"
   width="463.81641"
   height="368.59375"
   viewBox="0 0 463.81641 368.59375"
   xmlns="http://www.w3.org/2000/svg"
   xmlns:svg="http://www.w3.org/2000/svg">
  <defs
     id="defs1">
    <clipPath
       clipPathUnits="userSpaceOnUse"
       id="clipPath33">
      <path
         d="M 45,22 H 363 V 228 H 45 Z"
         id="path33" />
    </clipPath>
    <clipPath
       clipPathUnits="userSpaceOnUse"
       id="clipPath35">
      <path
         d="M 45,22 H 363 V 228 H 45 Z"
         id="path35" />
    </clipPath>
    <clipPath
       clipPathUnits="userSpaceOnUse"
       id="clipPath37">
      <path
         d="M 45,22 H 363 V 228 H 45 Z"
         id="path37" />
    </clipPath>
    <clipPath
       clipPathUnits="userSpaceOnUse"
       id="clipPath117">
      <path
         d="m 139,27 h 14 v 97.5 h -14 z"
         id="path117" />
    </clipPath>
    <clipPath
       clipPathUnits="userSpaceOnUse"
       id="clipPath119">
      <path
         d="m 164,27 h 14 v 97.5 h -14 z"
         id="path119" />
    </clipPath>
    <clipPath
       clipPathUnits="userSpaceOnUse"
       id="clipPath121">
      <path
         d="m 193,27 h 14 v 97.5 h -14 z"
         id="path121" />
    </clipPath>
    <clipPath
       clipPathUnits="userSpaceOnUse"
       id="clipPath123">
      <path
         d="M 84.75,27 H 98 v 97.5 H 84.75 Z"
         id="path123" />
    </clipPath>
    <clipPath
       clipPathUnits="userSpaceOnUse"
       id="clipPath125">
      <path
         d="m 84.75,34 h 159 v 82 h -159 z"
         id="path125" />
    </clipPath>
    <clipPath
       clipPathUnits="userSpaceOnUse"
       id="clipPath127">
      <path
         d="M 84.75,44 H 243 v 71 H 84.75 Z"
         id="path127" />
    </clipPath>
  </defs>
  <g
     id="g1"
     transform="translate(-20.683594,-15.5)">
    <path
       id="path3"
       d="M 93.672,256.5 V 12"
       style="fill:none;stroke:#000000;stroke-width:0.75;stroke-linecap:butt;stroke-linejoin:miter;stroke-miterlimit:1.1547;stroke-dasharray:none;stroke-opacity:0.12"
       transform="scale(1.3333333)" />
    <path
       id="path4"
       d="M 158.57,256.5 V 12"
       style="fill:none;stroke:#000000;stroke-width:0.75;stroke-linecap:butt;stroke-linejoin:miter;stroke-miterlimit:1.1547;stroke-dasharray:none;stroke-opacity:0.12"
       transform="scale(1.3333333)" />
    <path
       id="path5"
       d="M 223.469,256.5 V 12"
       style="fill:none;stroke:#000000;stroke-width:0.75;stroke-linecap:butt;stroke-linejoin:miter;stroke-miterlimit:1.1547;stroke-dasharray:none;stroke-opacity:0.12"
       transform="scale(1.3333333)" />
    <path
       id="path6"
       d="M 288.367,256.5 V 12"
       style="fill:none;stroke:#000000;stroke-width:0.75;stroke-linecap:butt;stroke-linejoin:miter;stroke-miterlimit:1.1547;stroke-dasharray:none;stroke-opacity:0.12"
       transform="scale(1.3333333)" />
    <path
       id="path7"
       d="M 353.266,256.5 V 12"
       style="fill:none;stroke:#000000;stroke-width:0.75;stroke-linecap:butt;stroke-linejoin:miter;stroke-miterlimit:1.1547;stroke-dasharray:none;stroke-opacity:0.12"
       transform="scale(1.3333333)" />
    <path
       id="path8"
       d="M 45,227.309 H 363"
       style="fill:none;stroke:#000000;stroke-width:0.75;stroke-linecap:butt;stroke-linejoin:miter;stroke-miterlimit:1.1547;stroke-dasharray:none;stroke-opacity:0.12"
       transform="scale(1.3333333)" />
    <path
       id="path9"
       d="M 45,145.641 H 363"
       style="fill:none;stroke:#000000;stroke-width:0.75;stroke-linecap:butt;stroke-linejoin:miter;stroke-miterlimit:1.1547;stroke-dasharray:none;stroke-opacity:0.12"
       transform="scale(1.3333333)" />
    <path
       id="path10"
       d="M 45,63.969 H 363"
       style="fill:none;stroke:#000000;stroke-width:0.75;stroke-linecap:butt;stroke-linejoin:miter;stroke-miterlimit:1.1547;stroke-dasharray:none;stroke-opacity:0.12"
       transform="scale(1.3333333)" />
    <path
       id="path11"
       d="m 7.2188987,-2.5900522 c 0,-0.1171876 -0.1289063,-0.1171876 -0.1640625,-0.1171876 -0.1171875,0 -0.1289063,0.011719 -0.2226563,0.246094 -0.609375,1.4531266 -0.9726562,2.13281492 -2.6367187,2.13281492 H 2.9063987 c -0.328125,0 -0.328125,-0.0234375 -0.328125,-0.10546887 0,-0.0585938 0.035156,-0.16406268 0.046875,-0.2226565 L 3.3517112,-3.5509908 h 0.9140625 c 0.7148437,0 0.7851562,0.1640627 0.7851562,0.4570318 0,0.070312 -0.011719,0.2226565 -0.09375,0.5273443 0,0 -0.023437,0.09375 -0.023437,0.1171877 0,0.1289063 0.1054688,0.1289063 0.1640625,0.1289063 0.1171875,0 0.1523438,-0.023437 0.1992188,-0.2109377 l 0.5742187,-2.3085964 c 0.011719,-0.035156 0.035156,-0.1406251 0.035156,-0.1406251 0,-0.1171877 -0.1289063,-0.1171877 -0.1757813,-0.1171877 -0.1289062,0 -0.1289062,0.023438 -0.1992187,0.2460941 -0.1992188,0.7500008 -0.3984375,0.9726573 -1.2421875,0.9726573 h -0.855469 l 0.6445313,-2.5781279 c 0.082031,-0.3515629 0.1523437,-0.3632817 0.5039062,-0.3632817 h 1.3125 c 1.125,0 1.3945313,0.3164066 1.3945313,1.0664075 0,0.2812503 -0.023437,0.4218755 -0.058594,0.6679695 -0.011719,0.058594 -0.011719,0.1523439 -0.011719,0.1875002 0,0.1171876 0.1054687,0.1171876 0.1523437,0.1171876 0.1523438,0 0.1523438,-0.035156 0.1757813,-0.2226565 L 7.7931174,-6.8674008 C 7.8282737,-7.1369324 7.7579612,-7.1369324 7.5353049,-7.1369324 H 2.6368674 c -0.1757812,0 -0.28125,0 -0.28125,0.1875002 0,0.1289064 0.070312,0.1289064 0.28125,0.1289064 0.609375,0 0.609375,0.09375 0.609375,0.1875002 0,0 0,0.082031 -0.046875,0.2343753 l -1.40625,5.63672518 c -0.082031,0.3515629 -0.140625,0.43359424 -0.85546871,0.43359424 -0.17578125,0 -0.28125,0 -0.28125,0.19921898 0,0.12890639977 0.09375,0.12890639977 0.2578125,0.12890639977 H 5.9415549 c 0.2109375,0 0.2226563,-0.0117187598 0.2929688,-0.16406268977 l 0.9375,-2.30859641 c 0.011719,-0.011719 0.046875,-0.1171876 0.046875,-0.1171876 z m 0,0"
       style="fill:#000000;fill-opacity:1;fill-rule:nonzero;stroke:none"
       aria-label="E"
       transform="matrix(1.3333333,0,0,1.3333318,253.56621,380.59402)" />
    <g
       id="g11"
       aria-label="/E"
       transform="matrix(1.3333333,0,0,1.3333304,263.0582,380.59402)">
      <path
         id="path12"
         d="m 4.6760786,-7.6642848 c 0,-0.1171877 -0.09375,-0.210938 -0.2109375,-0.210938 -0.09375,0 -0.1757813,0.046875 -0.1992188,0.1406254 L 0.59795356,2.3435496 c -0.0117188,0.023438 -0.0117188,0.046875 -0.0117188,0.070313 0,0.1171877 0.09375,0.2109379 0.2109375,0.2109379 0.09375,0 0.1640625,-0.046875 0.19921875,-0.1406253 L 4.6643598,-7.5939721 c 0.011719,-0.023438 0.011719,-0.046875 0.011719,-0.070313 z m 0,0"
         style="fill:#000000;fill-opacity:1;fill-rule:nonzero;stroke:none" />
      <path
         id="path13"
         d="m 12.469047,-2.5900549 c 0,-0.1171878 -0.128906,-0.1171878 -0.164062,-0.1171878 -0.117188,0 -0.128906,0.011719 -0.222656,0.2460943 -0.609375,1.4531282 -0.972657,2.13281718 -2.6367192,2.13281718 H 8.1565473 c -0.328125,0 -0.328125,-0.0234376 -0.328125,-0.10546898 0,-0.0585939 0.035156,-0.16406286 0.046875,-0.22265674 L 8.6018598,-3.5509945 h 0.9140625 c 0.7148437,0 0.7851567,0.1640628 0.7851567,0.4570322 0,0.070313 -0.01172,0.2226568 -0.09375,0.5273449 0,0 -0.02344,0.09375 -0.02344,0.1171878 0,0.1289065 0.105469,0.1289065 0.164063,0.1289065 0.117187,0 0.152343,-0.023437 0.199218,-0.2109379 l 0.574219,-2.3085989 c 0.01172,-0.035156 0.03516,-0.1406253 0.03516,-0.1406253 0,-0.1171877 -0.128906,-0.1171877 -0.175781,-0.1171877 -0.128906,0 -0.128906,0.023437 -0.199219,0.2460943 -0.199218,0.7500016 -0.398437,0.9726584 -1.2421872,0.9726584 H 8.6838911 l 0.6445312,-2.5781307 c 0.082031,-0.3515633 0.1523438,-0.363282 0.5039063,-0.363282 h 1.3125004 c 1.125,0 1.394531,0.3164069 1.394531,1.0664085 0,0.2812507 -0.02344,0.421876 -0.05859,0.6679703 -0.01172,0.058594 -0.01172,0.152344 -0.01172,0.1875004 0,0.1171877 0.105469,0.1171877 0.152344,0.1171877 0.152344,0 0.152344,-0.035156 0.175781,-0.2226567 l 0.246094,-1.8632853 c 0.03516,-0.2695319 -0.03516,-0.2695319 -0.257812,-0.2695319 H 7.8870161 c -0.1757813,0 -0.28125,0 -0.28125,0.1875004 0,0.1289066 0.070312,0.1289066 0.28125,0.1289066 0.609375,0 0.609375,0.09375 0.609375,0.1875004 0,0 0,0.082031 -0.046875,0.2343755 l -1.40625,5.63673108 c -0.082031,0.35156327 -0.140625,0.4335947 -0.8554688,0.4335947 -0.1757812,0 -0.28125,0 -0.28125,0.19921919 0,0.12890652955 0.09375,0.12890652955 0.2578125,0.12890652955 h 5.0273442 c 0.210937,0 0.222656,-0.0117187796 0.292968,-0.16406285955 l 0.9375,-2.30859884 c 0.01172,-0.011719 0.04687,-0.1171877 0.04687,-0.1171877 z m 0,0"
         style="fill:#000000;fill-opacity:1;fill-rule:nonzero;stroke:none" />
    </g>
    <path
       id="path14"
       d="m 2.6133037,-0.74961056 c 0,-0.0585938 -0.046875,-0.0703125 -0.082031,-0.0703125 -0.058594,0 -0.070312,0.0351563 -0.082031,0.0820313 -0.2226563,0.64453125 -0.7851563,0.64453125 -0.84375,0.64453125 -0.3164063,0 -0.5742188,-0.1875 -0.71484376,-0.421875 -0.1875,-0.29296875 -0.1875,-0.71484369 -0.1875,-0.93749999 H 2.4609599 c 0.140625,0 0.1523438,0 0.1523438,-0.140625 0,-0.6210937 -0.3398438,-1.2304688 -1.125,-1.2304688 -0.72656251,0 -1.31250001,0.6445312 -1.31250001,1.4414062 0,0.84375009 0.66796875,1.45312509 1.38281251,1.45312509 0.7734375,0 1.0546875,-0.703125 1.0546875,-0.82031255 z M 2.2031474,-1.5933606 H 0.70314744 c 0.0351563,-0.9375 0.57421876,-1.0898437 0.78515626,-1.0898437 0.6445312,0 0.7148437,0.84375 0.7148437,1.0898437 z M 7.9189678,3.894375e-4 V -0.19882931 c -0.328125,0 -0.4804688,0 -0.4921875,-0.1875 V -1.5933606 c 0,-0.5390625 0,-0.7382812 -0.1875,-0.9609375 -0.09375,-0.1054687 -0.3046875,-0.234375 -0.6679688,-0.234375 -0.5273437,0 -0.8085937,0.375 -0.9140625,0.6210938 -0.082031,-0.5507813 -0.5507812,-0.6210938 -0.8320312,-0.6210938 -0.46875,0 -0.7617188,0.2695313 -0.9375,0.6679688 v -0.6679688 l -0.890625,0.070312 v 0.1992188 c 0.4453125,0 0.4921875,0.046875 0.4921875,0.3515625 v 1.68749999 c 0,0.28125 -0.070312,0.28125 -0.4921875,0.28125 V 3.894375e-4 L 3.7119365,-0.02304806 4.4150615,3.894375e-4 V -0.19882931 c -0.421875,0 -0.4921875,0 -0.4921875,-0.28125 V -1.6402356 c 0,-0.65625 0.4453125,-1.0078125 0.8554688,-1.0078125 0.3984375,0 0.46875,0.3398438 0.46875,0.703125 v 1.46484379 c 0,0.28125 -0.070312,0.28125 -0.4921875,0.28125 V 3.894375e-4 L 5.469749,-0.02304806 6.172874,3.894375e-4 V -0.19882931 c -0.421875,0 -0.4921875,0 -0.4921875,-0.28125 V -1.6402356 c 0,-0.65625 0.4453125,-1.0078125 0.84375,-1.0078125 0.3984375,0 0.46875,0.3398438 0.46875,0.703125 v 1.46484379 c 0,0.28125 -0.070312,0.28125 -0.4921875,0.28125 V 3.894375e-4 L 7.2158428,-0.02304806 Z m 0,0"
       style="fill:#000000;fill-opacity:1;fill-rule:nonzero;stroke:none"
       aria-label="em"
       transform="matrix(1.3333333,0,0,1.3333333,279.707,383.39401)" />
    <path
       id="path15"
       d="m 5.3203181,-3.5860652 c 0,2.449212 -0.8554688,3.7382709 -2.4375,3.7382709 -1.59375,0 -2.42578129,-1.2890589 -2.42578129,-3.7968645 0,-2.4960869 0.82031249,-3.7968645 2.42578129,-3.7968645 1.6171875,0 2.4375,1.2773402 2.4375,3.8554581 z m -0.9375,-0.082031 c 0,-1.992182 -0.4921875,-2.9531169 -1.5,-2.9531169 -0.9960938,0 -1.4882813,0.9492161 -1.4882813,2.988273 0,2.0390569 0.4921875,3.02342916 1.4765625,3.02342916 1.0195313,0 1.5117188,-0.94921616 1.5117188,-3.05858526 z M 7.842779,-1.3762462e-4 c 0,0 -1.0898437,0 -1.0898437,0 0,0 0,-1.08984077538 0,-1.08984077538 0,0 1.0898437,0 1.0898437,0 z m 0,0"
       style="fill:#000000;fill-opacity:1;fill-rule:nonzero;stroke:none"
       aria-label="0."
       transform="matrix(1.3333333,0,0,1.333337,115.16796,363.258)" />
    <path
       id="path16"
       d="m 5.460783,-1.7813847 c 0,0 -1.1015625,0 -1.1015625,0 0,0 0,1.78124707522 0,1.78124707522 0,0 -0.9257812,0 -0.9257812,0 0,0 0,-1.78124707522 0,-1.78124707522 0,0 -3.14062505,0 -3.14062505,0 0,0 0,-0.9843734 0,-0.9843734 0,0 3.38671875,-4.6757737 3.38671875,-4.6757737 0,0 0.6796875,0 0.6796875,0 0,0 0,4.8281172 0,4.8281172 0,0 1.1015625,0 1.1015625,0 z M 3.4334393,-2.6134146 c 0,0 0,-3.2578073 0,-3.2578073 0,0 -2.3320313,3.2578073 -2.3320313,3.2578073 z m 0,0"
       style="fill:#000000;fill-opacity:1;fill-rule:nonzero;stroke:none"
       aria-label="4"
       transform="matrix(1.3333333,0,0,1.3333355,126.84396,363.258)" />
    <path
       id="path17"
       d="m 5.3207936,-3.5860635 c 0,2.4492108 -0.8554688,3.73826913 -2.4375,3.73826913 -1.59375,0 -2.42578129,-1.28905833 -2.42578129,-3.79686273 0,-2.4960856 0.82031249,-3.7968627 2.42578129,-3.7968627 1.6171875,0 2.4375,1.2773396 2.4375,3.8554563 z m -0.9375,-0.082031 c 0,-1.992181 -0.4921875,-2.9531154 -1.5,-2.9531154 -0.9960938,0 -1.4882813,0.9492156 -1.4882813,2.9882715 0,2.0390559 0.4921875,3.02342775 1.4765625,3.02342775 1.0195313,0 1.5117188,-0.94921565 1.5117188,-3.05858385 z m 0,0"
       style="fill:#000000;fill-opacity:1;fill-rule:nonzero;stroke:none"
       aria-label="0"
       transform="matrix(1.3333333,0,0,1.3333377,201.69858,363.258)" />
    <path
       id="path18"
       d="m 2.0052565,-1.376247e-4 c 0,0 -1.08984375,0 -1.08984375,0 0,0 0,-1.0898413753 0,-1.0898413753 0,0 1.08984375,0 1.08984375,0 z M 8.309944,-2.3087263 c 0,1.4531218 -1.0195312,2.46093209 -2.4375,2.46093209 -1.6992187,0 -2.4960937,-1.21874729 -2.4960937,-3.53905479 0,-2.6015568 0.9257812,-4.0546786 2.6601562,-4.0546786 1.1367188,0 1.9335938,0.7265609 2.109375,1.9335895 0,0 -0.9257812,0 -0.9257812,0 -0.140625,-0.7031234 -0.5976563,-1.1132788 -1.2421875,-1.1132788 -1.0664063,0 -1.6523438,1.0078103 -1.6640625,2.8242126 0.3984375,-0.5507801 0.9726562,-0.8320294 1.7109375,-0.8320294 1.3359375,0 2.2851562,0.9374979 2.2851562,2.3203074 z m -0.9492187,0.070312 c 0,-0.9960915 -0.5507813,-1.570309 -1.453125,-1.570309 -0.9140625,0 -1.5351563,0.5976549 -1.5351563,1.5234341 0,0.9492167 0.6445313,1.62890271 1.5117188,1.62890271 0.84375,0 1.4765625,-0.64452981 1.4765625,-1.58202781 z m 57.0234377,-1.347653 c 0,2.4492134 -0.855469,3.73827309 -2.4375,3.73827309 -1.59375,0 -2.425781,-1.28905969 -2.425781,-3.79686669 0,-2.4960883 0.820312,-3.7968667 2.425781,-3.7968667 1.617187,0 2.4375,1.277341 2.4375,3.8554603 z m -0.9375,-0.082031 c 0,-1.9921832 -0.492188,-2.9531186 -1.5,-2.9531186 -0.996094,0 -1.488281,0.9492167 -1.488281,2.9882747 0,2.0390581 0.492187,3.02343091 1.476562,3.02343091 1.019531,0 1.511719,-0.94921671 1.511719,-3.05858701 z m 3.457031,3.6679606753 c 0,0 -1.089844,0 -1.089844,0 0,0 0,-1.0898413753 0,-1.0898413753 0,0 1.089844,0 1.089844,0 z m 0,0"
       style="fill:#000000;fill-opacity:1;fill-rule:nonzero;stroke:none"
       aria-label=".60."
       transform="matrix(1.3333333,0,0,1.3333363,209.48257,363.258)" />
    <path
       id="path19"
       d="m 5.3914035,-2.0977847 c 0,1.34765036 -1.03125,2.24999016 -2.5078125,2.24999016 -1.4648438,0 -2.49609375,-0.9023398 -2.49609375,-2.26170886 0,-0.8203089 0.421875,-1.3945251 1.27734375,-1.8046796 -0.76171875,-0.4804666 -1.0078125,-0.855465 -1.0078125,-1.5468682 0,-1.1601512 0.9140625,-1.9804601 2.2265625,-1.9804601 1.3242187,0 2.2382812,0.8203089 2.2382812,1.9804601 0,0.7031219 -0.2460937,1.0781203 -1.0195312,1.5468682 0.8671875,0.4101545 1.2890625,0.9843707 1.2890625,1.8163983 z M 4.1843722,-5.4376138 c 0,-0.7265593 -0.5039062,-1.1835886 -1.3007812,-1.1835886 -0.7734375,0 -1.2890625,0.4570293 -1.2890625,1.1718699 0,0.7031219 0.515625,1.1601512 1.2890625,1.1601512 0.7851562,0 1.3007812,-0.4570293 1.3007812,-1.1484325 z m 0.2578125,3.3515478 c 0,-0.8789024 -0.6328125,-1.4179625 -1.5585937,-1.4179625 -0.9140625,0 -1.546875,0.5390601 -1.546875,1.4179625 0,0.8671837 0.6328125,1.42968125 1.5351562,1.42968125 0.9375,0 1.5703125,-0.55077885 1.5703125,-1.42968125 z m 0,0"
       style="fill:#000000;fill-opacity:1;fill-rule:nonzero;stroke:none"
       aria-label="8"
       transform="matrix(1.3333333,0,0,1.3333392,299.90521,363.258)" />
    <path
       id="path20"
       d="m 3.6459733,-1.376247e-4 c 0,0 -0.9257812,0 -0.9257812,0 0,0 0,-5.2968633753 0,-5.2968633753 0,0 -1.6523438,0 -1.6523438,0 0,0 0,-0.6679673 0,-0.6679673 1.4296875,-0.1757809 1.640625,-0.339843 1.96875,-1.4765593 0,0 0.609375,0 0.609375,0 z m 4.1953125,0 c 0,0 -1.0898437,0 -1.0898437,0 0,0 0,-1.0898413753 0,-1.0898413753 0,0 1.0898437,0 1.0898437,0 z m 0,0"
       style="fill:#000000;fill-opacity:1;fill-rule:nonzero;stroke:none"
       aria-label="1."
       transform="matrix(1.3333333,0,0,1.3333363,374.7598,363.258)" />
    <path
       id="path21"
       d="m 5.3215715,-3.5860594 c 0,2.449208 -0.8554687,3.73826486 -2.4375,3.73826486 -1.59375,0 -2.42578125,-1.28905686 -2.42578125,-3.79685836 0,-2.4960828 0.82031255,-3.7968584 2.42578125,-3.7968584 1.6171875,0 2.4375,1.2773382 2.4375,3.8554519 z m -0.9375,-0.082031 c 0,-1.9921788 -0.4921875,-2.9531121 -1.5,-2.9531121 -0.9960937,0 -1.4882812,0.9492146 -1.4882812,2.9882682 0,2.0390536 0.4921875,3.02342425 1.4765625,3.02342425 1.0195312,0 1.5117187,-0.94921455 1.5117187,-3.05858035 z m 0,0"
       style="fill:#000000;fill-opacity:1;fill-rule:nonzero;stroke:none"
       aria-label="0"
       transform="matrix(1.3333333,0,0,1.3333392,386.43582,363.258)" />
    <path
       id="path22"
       d="m 3.6435241,-1.376247e-4 c 0,0 -0.9257812,0 -0.9257812,0 0,0 0,-5.2968633753 0,-5.2968633753 0,0 -1.6523438,0 -1.6523438,0 0,0 0,-0.6679673 0,-0.6679673 1.4296875,-0.1757809 1.640625,-0.339843 1.96875,-1.4765593 0,0 0.609375,0 0.609375,0 z m 4.1982422,0 c 0,0 -1.0898437,0 -1.0898437,0 0,0 0,-1.0898413753 0,-1.0898413753 0,0 1.0898437,0 1.0898437,0 z M 14.123016,-5.2618448 c 0,0.9140604 -0.539062,1.6874963 -1.582031,2.249995 0,0 -1.042969,0.5624988 -1.042969,0.5624988 -0.914062,0.5390613 -1.253906,0.9257792 -1.347656,1.53515288 0,0 3.914063,0 3.914063,0 0,0 0,0.9140604953 0,0.9140604953 0,0 -4.9570317,0 -4.9570317,0 C 9.2011413,-1.640759 9.6464538,-2.3438825 11.205048,-3.2227868 c 0,0 0.960937,-0.5507801 0.960937,-0.5507801 0.667969,-0.3749991 1.007813,-0.8789043 1.007813,-1.4648405 0,-0.7968733 -0.632813,-1.3945282 -1.464844,-1.3945282 -0.914063,0 -1.429688,0.5273426 -1.5,1.7695274 0,0 -0.9257814,0 -0.9257814,0 0.046875,-1.8046836 0.9375004,-2.5781194 2.4492184,-2.5781194 1.417969,0 2.390625,0.9257792 2.390625,2.1796828 z m 0,0"
       style="fill:#000000;fill-opacity:1;fill-rule:nonzero;stroke:none"
       aria-label="1.2"
       transform="matrix(1.3333333,0,0,1.3333363,461.29041,363.258)" />
    <path
       id="path23"
       d="m 5.3674962,-4.2782063 c 0,-0.2460938 -0.2226563,-0.2460938 -0.421875,-0.2460938 H 2.0042149 c -0.2109375,0 -0.6210937,0 -1.07812496,0.4921875 -0.3515625,0.3750001 -0.64453125,0.8789064 -0.64453125,0.9492189 0,0 0,0.1054687 0.12890625,0.1054687 0.0820313,0 0.10546875,-0.046875 0.1640625,-0.1289062 C 1.0901524,-3.9149251 1.6878087,-3.9149251 1.9104649,-3.9149251 h 0.8671875 l -1.0195312,3.36328161 c -0.046875,0.12890626 -0.1054688,0.35156253 -0.1054688,0.39843754 0,0.10546876 0.070312,0.28125002 0.3046875,0.28125002 0.3398438,0 0.3984375,-0.29296877 0.421875,-0.45703129 l 0.703125,-3.58593788 h 1.7695313 c 0.140625,0 0.515625,0 0.515625,-0.3632812 z m 0,0"
       style="fill:#000000;fill-opacity:1;fill-rule:nonzero;stroke:none"
       aria-label="ðœ"
       transform="matrix(0,-1.3333333,1.3333332,0,26.715993,182.05901)" />
    <path
       id="path24"
       d="m 5.3194423,-3.5852742 c 0,2.4492188 -0.8554687,3.73828126 -2.4375,3.73828126 -1.59375,0 -2.42578124,-1.28906246 -2.42578124,-3.79687496 0,-2.4960938 0.82031254,-3.796875 2.42578124,-3.796875 1.6171875,0 2.4375,1.2773437 2.4375,3.8554687 z m -0.9375,-0.082031 c 0,-1.9921875 -0.4921875,-2.953125 -1.5,-2.953125 -0.9960937,0 -1.4882812,0.9492187 -1.4882812,2.9882812 0,2.0390625 0.4921875,3.02343751 1.4765625,3.02343751 1.0195312,0 1.5117187,-0.94921871 1.5117187,-3.05859371 z m 0,0"
       style="fill:#000000;fill-opacity:1;fill-rule:nonzero;stroke:none"
       aria-label="0"
       transform="matrix(1.3333333,0,0,1.3333333,42.216004,308.18271)" />
    <path
       id="path25"
       d="m 5.3683858,-5.2615689 c 0,0.9140624 -0.5390625,1.6874997 -1.5820312,2.2499996 0,0 -1.0429688,0.5624999 -1.0429688,0.5624999 -0.9140625,0.5390624 -1.2539062,0.9257811 -1.3476562,1.53515595 0,0 3.9140625,0 3.9140625,0 0,0 0,0.91406232497 0,0.91406232497 0,0 -4.95703129,0 -4.95703129,0 C 0.44651081,-1.6404758 0.89182331,-2.3436007 2.4504171,-3.2225068 c 0,0 0.9609375,-0.5507811 0.9609375,-0.5507811 0.6679687,-0.3749999 1.0078125,-0.8789061 1.0078125,-1.4648435 0,-0.7968748 -0.6328125,-1.394531 -1.4648438,-1.394531 -0.9140625,0 -1.4296875,0.5273437 -1.5,1.769531 0,0 -0.92578124,0 -0.92578124,0 0.046875,-1.8046872 0.93750004,-2.5781246 2.44921874,-2.5781246 1.4179688,0 2.390625,0.9257811 2.390625,2.1796871 z m 0,0"
       style="fill:#000000;fill-opacity:1;fill-rule:nonzero;stroke:none"
       aria-label="2"
       transform="matrix(1.3333333,0,0,1.3333336,34.431996,199.28886)" />
    <path
       id="path26"
       d="m 5.3194423,-3.5857849 c 0,2.4492162 -0.8554687,3.73827737 -2.4375,3.73827737 -1.59375,0 -2.42578124,-1.28906117 -2.42578124,-3.79687107 0,-2.4960911 0.82031254,-3.796871 2.42578124,-3.796871 1.6171875,0 2.4375,1.2773424 2.4375,3.8554647 z m -0.9375,-0.082031 c 0,-1.9921854 -0.4921875,-2.9531219 -1.5,-2.9531219 -0.9960937,0 -1.4882812,0.9492177 -1.4882812,2.9882781 0,2.0390603 0.4921875,3.02343431 1.4765625,3.02343431 1.0195312,0 1.5117187,-0.94921771 1.5117187,-3.05859051 z m 0,0"
       style="fill:#000000;fill-opacity:1;fill-rule:nonzero;stroke:none"
       aria-label="0"
       transform="matrix(1.3333333,0,0,1.3333347,42.216004,199.28886)" />
    <path
       id="path27"
       d="m 5.4621358,-1.7816181 c 0,0 -1.1015625,0 -1.1015625,0 0,0 0,1.78125153719 0,1.78125153719 0,0 -0.9257812,0 -0.9257812,0 0,0 0,-1.78125153719 0,-1.78125153719 0,0 -3.14062504,0 -3.14062504,0 0,0 0,-0.9843758 0,-0.9843758 0,0 3.38671874,-4.6757853 3.38671874,-4.6757853 0,0 0.6796875,0 0.6796875,0 0,0 0,4.8281291 0,4.8281291 0,0 1.1015625,0 1.1015625,0 z m -2.0273437,-0.832032 c 0,0 0,-3.2578152 0,-3.2578152 0,0 -2.3320313,3.2578152 -2.3320313,3.2578152 z m 0,0"
       style="fill:#000000;fill-opacity:1;fill-rule:nonzero;stroke:none"
       aria-label="4"
       transform="matrix(1.3333333,0,0,1.3333322,34.431996,90.39502)" />
    <path
       id="path28"
       d="m 5.3194423,-3.5863041 c 0,2.4492188 -0.8554687,3.73828129 -2.4375,3.73828129 -1.59375,0 -2.42578124,-1.28906249 -2.42578124,-3.79687499 0,-2.4960938 0.82031254,-3.796875 2.42578124,-3.796875 1.6171875,0 2.4375,1.2773437 2.4375,3.8554687 z m -0.9375,-0.082031 c 0,-1.9921875 -0.4921875,-2.953125 -1.5,-2.953125 -0.9960937,0 -1.4882812,0.9492187 -1.4882812,2.9882812 0,2.0390625 0.4921875,3.02343754 1.4765625,3.02343754 1.0195312,0 1.5117187,-0.94921874 1.5117187,-3.05859374 z m 0,0"
       style="fill:#000000;fill-opacity:1;fill-rule:nonzero;stroke:none"
       aria-label="0"
       transform="matrix(1.3333333,0,0,1.3333333,42.216004,90.39502)" />
    <path
       id="path29"
       d="m 59.999999,302.64533 c 54.671491,-0.86243 109.661381,-0.54044 163.895991,-7.896 35.01396,-5.33972 70.85686,-14.05524 99.99467,-35.01467 14.37728,-10.12005 23.85633,-25.14373 33.76,-39.28667 2.64357,-4.69072 7.43212,-1.01868 7.792,3.08267 1.86412,3.98615 1.72658,9.52989 4.86933,12.50533 1.43224,-2.68821 3.13711,-4.57209 6.16667,-5 6.59316,-3.53885 13.26318,-8.10792 18.50533,-12.83333 3.4668,3.37741 2.79452,-7.00804 3.70969,-9.53544 1.69075,-7.30827 0.5501,-16.52452 5.38498,-22.41656 5.64332,4.186 6.68548,12.72756 10.38533,18.65067 4.56892,9.40032 10.38427,18.28296 17.85867,25.62 0.7214,24.17581 0.37076,48.37274 0.64666,72.55733 17.01023,0 34.02044,0 51.03067,0"
       style="fill:none;stroke:#0072b2;stroke-width:2;stroke-linecap:butt;stroke-linejoin:miter;stroke-miterlimit:2;stroke-dasharray:none;stroke-opacity:1" />
    <path
       id="path30"
       d="m 59.999999,302.77066 c 55.530391,-0.76587 111.337441,-0.28341 166.494661,-7.192 31.6332,-3.88744 62.42628,-12.72681 91.87467,-24.59467 8.94656,-3.58704 20.00374,-6.13769 28.24533,0.61467 3.70113,3.45293 8.82692,2.80407 12.33333,-0.48933 3.74684,-1.95363 7.64168,-1.50723 11.364,-3.11467 10.05973,-3.1908 20.79485,-7.06664 29.54267,-12.60933 1.61236,-2.64983 4.89445,-2.77135 7.468,-2.812 5.64318,-8.82308 3.989,-21.4725 11.688,-29.08934 5.50537,-1.19 9.3293,4.72163 13.312,7.604 0.69874,23.98792 0.38145,47.9947 0.64666,71.99067 17.01023,0 34.02044,0 51.03067,0"
       style="fill:none;stroke:#e69f00;stroke-width:2;stroke-linecap:butt;stroke-linejoin:miter;stroke-miterlimit:2;stroke-dasharray:none;stroke-opacity:1" />
    <path
       id="path31"
       d="m 59.999999,303.09333 c 72.947311,-0.1319 145.891671,0.40882 218.821791,1.70933 21.51986,0.07 43.05056,-1.22404 64.5422,-0.276 23.06656,0.27697 46.46788,1.57412 69.152,4.88533 3.42091,1.6433 7.30281,-0.99166 10.39067,2.088 5.48746,3.30014 6.83237,10.27528 9.416,15.68267 0.40616,-8.02885 0.46846,-16.0682 0.64666,-24.104 17.01023,0 34.02044,0 51.03067,0"
       style="fill:none;stroke:#009e73;stroke-width:2;stroke-linecap:butt;stroke-linejoin:miter;stroke-miterlimit:2;stroke-dasharray:none;stroke-opacity:1" />
    <path
       id="path32"
       d="m 45,226.945 c 40.438096,-0.69411 81.15313,-0.50406 121.219,-6.3 26.17664,-4.21217 52.86448,-11.34927 74.261,-27.579 18.57835,-14.06406 26.93444,-37.15559 31.07414,-59.31929 5.58174,-29.41521 7.19488,-59.392252 8.85986,-89.23071 1.05256,16.338416 -0.78514,33.2834 4.137,49.105 1.01003,3.787023 4.77132,1.484272 5.113,-1.324 5.55385,-17.741939 4.70761,-36.713596 5.41938,-55.09569 0.0609,-4.696103 0.12175,-9.392207 0.18262,-14.08831 2.55069,37.182596 2.95605,75.000309 12.175,111.352 3.22307,11.97974 8.29986,23.78042 16.801,32.976 0.53574,19.94928 0.28185,39.91275 0.485,59.868 12.75767,0 25.51533,0 38.273,0"
       style="fill:none;stroke:#cc79a7;stroke-width:1.5;stroke-linecap:butt;stroke-linejoin:miter;stroke-miterlimit:2;stroke-dasharray:none;stroke-opacity:1"
       clip-path="url(#clipPath33)"
       transform="scale(1.3333333)" />
    <path
       id="path34"
       d="m 45,227.191 c 44.118046,-0.58762 88.5643,-0.12181 132.176,-7.507 23.00753,-4.34879 46.44771,-9.80027 66.715,-22.02 9.79994,-5.7353 16.92133,-14.69538 24.347,-23.043 2.74703,-3.39134 6.09333,0.50238 6.574,3.551 0.63558,2.30656 2.58786,8.29693 4.626,3.488 5.91873,-1.85172 11.89161,-5.34425 16.8,-8.91 2.95006,1.74022 2.21342,-6.03007 3.168,-8.023 1.10287,-3.66995 0.52039,-9.02855 3.895,-11.383 4.60254,3.0439 6.0795,9.31049 9.738,13.422 2.81049,3.89516 6.21961,7.33591 9.984,10.293 0.16508,16.74998 0.32796,33.49998 0.489,50.25 13.16267,0 26.32533,0 39.488,0"
       style="fill:none;stroke:#0072b2;stroke-width:1.125;stroke-linecap:butt;stroke-linejoin:miter;stroke-miterlimit:2;stroke-dasharray:3.375, 1.125;stroke-dashoffset:0;stroke-opacity:1"
       clip-path="url(#clipPath35)"
       transform="scale(1.3333333)" />
    <path
       id="path36"
       d="m 45,227.215 c 45.246006,-0.54126 90.82288,0.0811 135.582,-7.305 20.90844,-3.38275 41.22419,-9.47475 61.359,-15.926 6.41002,-2.17915 13.64433,-2.15359 19.481,1.614 4.7657,2.84524 8.99709,-2.90068 13.879,-2.039 8.25544,-2.47622 17.12513,-4.80291 24.59,-9 1.85789,-2.79385 6.42434,-0.39879 7.062,-4.438 2.64594,-5.09292 2.50413,-13.04651 8.277,-15.719 2.80592,-0.0623 6.61187,1.49573 7.80003,3.80096 0.14968,16.36879 0.30919,32.73748 0.48197,49.10604 13.16267,0 26.32533,0 39.488,0"
       style="fill:none;stroke:#e69f00;stroke-width:1.125;stroke-linecap:butt;stroke-linejoin:miter;stroke-miterlimit:2;stroke-dasharray:3.375, 1.125;stroke-dashoffset:0;stroke-opacity:1"
       clip-path="url(#clipPath37)"
       transform="scale(1.3333333)" />
    <path
       id="path38"
       d="m 59.999999,303.08799 c 74.116251,-0.0714 148.235051,0.36198 222.333331,1.71467 20.99874,-0.11084 41.98641,-1.7278 62.97866,-1.05733 22.42139,0.21062 45.17837,0.78098 67.204,4.71866 3.50297,0.90282 7.37928,-0.158 10.068,3.10934 4.03039,2.76046 4.25429,8.61021 8.11333,11.36933 0.18284,-6.62267 0.21276,-13.2512 0.652,-19.864 17.55023,0 35.10044,0 52.65067,0"
       style="fill:none;stroke:#009e73;stroke-width:1.5;stroke-linecap:butt;stroke-linejoin:miter;stroke-miterlimit:2;stroke-dasharray:4.5, 1.5;stroke-dashoffset:0;stroke-opacity:1" />
    <path
       id="path39"
       d="m 59.999999,302.90133 c 56.766741,-0.80344 113.977661,-0.30488 170.062661,-9.94267 31.35217,-5.94863 63.11092,-13.93865 90.57733,-30.776 21.07307,-12.85476 34.40828,-35.31203 40.20103,-58.91683 8.5767,-32.82867 10.70597,-66.88014 13.0443,-100.59917 1.39638,17.57017 -1.04632,36.15372 5.516,52.86934 2.87423,5.52285 7.60562,-1.13398 8.12,-4.63467 6.77703,-23.28689 5.35332,-47.93028 6.16667,-71.917332 3.36792,39.516032 3.8372,80.139652 16.23333,118.240002 4.15124,12.19299 10.88442,23.76325 20.776,32.14533 0.22135,24.56974 0.43842,49.13952 0.652,73.70933 17.55023,0 35.10044,0 52.65067,0"
       style="fill:none;stroke:#cc79a7;stroke-width:1.5;stroke-linecap:butt;stroke-linejoin:miter;stroke-miterlimit:2;stroke-dasharray:4.5, 1.5;stroke-dashoffset:0;stroke-opacity:1" />
    <path
       id="path40"
       d="m 4.7465176,-6.7139348 c 0,-0.445313 -0.4335937,-0.691407 -0.8554687,-0.691407 -1.03125,0 -1.3007813,1.3710952 -1.3710938,1.7226581 L 2.2972989,-4.5225262 H 1.6058926 c -0.1640625,0 -0.28125,0 -0.28125,0.2109377 0,0.1171876 0.1054688,0.1171876 0.2578125,0.1171876 h 0.65625 L 1.4652676,-0.28033429 C 1.3480801,0.36419763 1.2426114,0.79779184 1.1722989,1.0204483 1.0902676,1.3720112 0.96136137,1.922793 0.57464262,1.922793 c -0.10546875,0 -0.3046875,-0.035156 -0.421875,-0.1875002 0.31640625,-0.058594 0.46875,-0.3046878 0.46875,-0.5156255 0,-0.23437527 -0.1875,-0.33984413 -0.36328125,-0.33984413 -0.257812495,0 -0.515625,0.21093773 -0.515625,0.58593813 0,0.4687505 0.4453125,0.691407 0.83203125,0.691407 1.08984378,0 1.52343748,-2.20312735 1.59374998,-2.5898465 l 0.7382813,-3.7617227 h 0.8671875 c 0.1757812,0 0.28125,0 0.28125,-0.199219 0,-0.1289063 -0.082031,-0.1289063 -0.2695313,-0.1289063 H 2.9769864 l 0.328125,-1.6992206 c 0.082031,-0.3867191 0.1992187,-0.9492197 0.5859375,-0.9492197 0.082031,0 0.3046875,0.023437 0.4335937,0.1875002 -0.3164062,0.058594 -0.4570312,0.3046878 -0.4570312,0.5156255 0,0.2343753 0.1875,0.3398441 0.3515625,0.3398441 0.2695312,0 0.5273437,-0.2109377 0.5273437,-0.5859381 z m 0,0"
       style="fill:#000000;fill-opacity:1;fill-rule:nonzero;stroke:none"
       aria-label="f"
       transform="matrix(1.3333333,0,0,1.3333319,216.851,205.68628)" />
    <path
       id="path41"
       d="m 3.6447429,9.6087445e-4 c 0,0 -0.9257812,0 -0.9257812,0 0,0 0,-5.29687197445 0,-5.29687197445 0,0 -1.6523438,0 -1.6523438,0 0,0 0,-0.6679684 0,-0.6679684 1.4296875,-0.1757811 1.640625,-0.3398435 1.96875,-1.4765616 0,0 0.609375,0 0.609375,0 z m 0,0"
       style="fill:#000000;fill-opacity:1;fill-rule:nonzero;stroke:none"
       aria-label="1"
       transform="matrix(1.3333333,0,0,1.3333341,116.37862,188.35028)" />
    <path
       id="path42"
       d="m 5.3213994,-3.5849766 c 0,2.4492187 -0.8554688,3.73828123 -2.4375,3.73828123 -1.59375,0 -2.42578128,-1.28906253 -2.42578128,-3.79687503 0,-2.4960937 0.82031248,-3.796875 2.42578128,-3.796875 1.6171875,0 2.4375,1.2773438 2.4375,3.8554688 z m -0.9375,-0.082031 c 0,-1.9921875 -0.4921875,-2.953125 -1.5,-2.953125 -0.9960938,0 -1.4882813,0.9492188 -1.4882813,2.9882813 0,2.0390625 0.4921875,3.02343748 1.4765625,3.02343748 1.0195313,0 1.5117188,-0.94921878 1.5117188,-3.05859378 z m 0,0"
       style="fill:#000000;fill-opacity:1;fill-rule:nonzero;stroke:none"
       aria-label="0"
       transform="matrix(1.3333333,0,0,1.3333333,124.16261,188.35028)" />
    <path
       id="path43"
       d="m 3.5745731,-1.500217 c 0,0 -3.10546879,0 -3.10546879,0 0,0 0,-0.46875 0,-0.46875 0,0 3.10546879,0 3.10546879,0 z m 0,0"
       style="fill:#000000;fill-opacity:1;fill-rule:nonzero;stroke:none"
       aria-label="âˆ’"
       transform="matrix(1.3333333,0,0,1.3333333,132.87062,182.75029)" />
    <path
       id="path44"
       d="m 3.596798,-1.1720939 c 0,0 -0.7265625,0 -0.7265625,0 0,0 0,1.17187689966 0,1.17187689966 0,0 -0.609375,0 -0.609375,0 0,0 0,-1.17187689966 0,-1.17187689966 0,0 -2.0625,0 -2.0625,0 0,0 0,-0.6445322 0,-0.6445322 0,0 2.2265625,-3.0937549 2.2265625,-3.0937549 0,0 0.4453125,0 0.4453125,0 0,0 0,3.187505 0,3.187505 0,0 0.7265625,0 0.7265625,0 z M 2.2608605,-1.722876 c 0,0 0,-2.1445346 0,-2.1445346 0,0 -1.53515625,2.1445346 -1.53515625,2.1445346 z m 0,0"
       style="fill:#000000;fill-opacity:1;fill-rule:nonzero;stroke:none"
       aria-label="4"
       transform="matrix(1.3333333,0,0,1.3333312,138.26677,182.75029)" />
    <path
       id="path45"
       d="m 3.6456299,9.6087399e-4 c 0,0 -0.9257813,0 -0.9257813,0 0,0 0,-5.29686947399 0,-5.29686947399 0,0 -1.6523437,0 -1.6523437,0 0,0 0,-0.667968 0,-0.667968 1.4296875,-0.1757811 1.640625,-0.3398434 1.96875,-1.476561 0,0 0.609375,0 0.609375,0 z m 0,0"
       style="fill:#000000;fill-opacity:1;fill-rule:nonzero;stroke:none"
       aria-label="1"
       transform="matrix(1.3333333,0,0,1.3333347,172.49072,188.35028)" />
    <path
       id="path46"
       d="m 5.3193516,-3.5849766 c 0,2.4492187 -0.8554687,3.73828123 -2.4375,3.73828123 -1.59375,0 -2.42578123,-1.28906253 -2.42578123,-3.79687503 0,-2.4960937 0.82031253,-3.796875 2.42578123,-3.796875 1.6171875,0 2.4375,1.2773438 2.4375,3.8554688 z m -0.9375,-0.082031 c 0,-1.9921875 -0.4921875,-2.953125 -1.5,-2.953125 -0.9960937,0 -1.4882812,0.9492188 -1.4882812,2.9882813 0,2.0390625 0.4921875,3.02343748 1.4765625,3.02343748 1.0195312,0 1.5117187,-0.94921878 1.5117187,-3.05859378 z m 0,0"
       style="fill:#000000;fill-opacity:1;fill-rule:nonzero;stroke:none"
       aria-label="0"
       transform="matrix(1.3333333,0,0,1.3333333,180.27472,188.35028)" />
    <g
       id="g46"
       aria-label="âˆ’3"
       transform="matrix(1.3333333,0,0,1.3333312,188.98273,182.75029)">
      <path
         id="path47"
         d="m 3.575455,-1.5002194 c 0,0 -3.10546875,0 -3.10546875,0 0,0 0,-0.4687507 0,-0.4687507 0,0 3.10546875,0 3.10546875,0 z m 0,0"
         style="fill:#000000;fill-opacity:1;fill-rule:nonzero;stroke:none" />
      <path
         id="path48"
         d="m 7.5510409,-1.4299068 c 0,0.92578275 -0.65625,1.53515872 -1.6640625,1.53515872 -0.9960937,0 -1.546875,-0.49218828 -1.6171875,-1.58203372 0,0 0.609375,0 0.609375,0 0.035156,0.70312607 0.3632813,1.04297036 1.03125,1.04297036 0.6328125,0 1.0195313,-0.37500059 1.0195313,-0.98437656 0,-0.5507821 -0.3515625,-0.8671889 -1.0195313,-0.8671889 0,0 -0.328125,0 -0.328125,0 0,0 0,-0.5156258 0,-0.5156258 0.9726563,0 1.1953125,-0.2109378 1.1953125,-0.7382824 0,-0.5156258 -0.3164062,-0.8437514 -0.8554687,-0.8437514 -0.6328125,0 -0.9257813,0.3281256 -0.9375,1.0546892 0,0 -0.609375,0 -0.609375,0 0.023437,-1.0429704 0.5390625,-1.5820337 1.5351562,-1.5820337 0.9375,0 1.5,0.503907 1.5,1.3476583 0,0.4921883 -0.234375,0.8085951 -0.6914062,0.9960954 0.5859375,0.199219 0.8320312,0.5390633 0.8320312,1.1367205 z m 0,0"
         style="fill:#000000;fill-opacity:1;fill-rule:nonzero;stroke:none" />
    </g>
    <path
       id="path49"
       d="m 3.6435811,9.60875e-4 c 0,0 -0.9257812,0 -0.9257812,0 0,0 0,-5.296874975 0,-5.296874975 0,0 -1.6523438,0 -1.6523438,0 0,0 0,-0.6679688 0,-0.6679688 1.4296875,-0.1757812 1.640625,-0.3398437 1.96875,-1.4765625 0,0 0.609375,0 0.609375,0 z M 11.15823,-3.5849766 c 0,2.4492187 -0.855469,3.73828123 -2.4375004,3.73828123 -1.59375,0 -2.4257813,-1.28906253 -2.4257813,-3.79687503 0,-2.4960937 0.8203125,-3.796875 2.4257813,-3.796875 1.6171874,0 2.4375004,1.2773438 2.4375004,3.8554688 z m -0.9375,-0.082031 c 0,-1.9921875 -0.4921879,-2.953125 -1.5000004,-2.953125 -0.9960938,0 -1.4882813,0.9492188 -1.4882813,2.9882813 0,2.0390625 0.4921875,3.02343748 1.4765625,3.02343748 1.0195313,0 1.5117192,-0.94921878 1.5117192,-3.05859378 z m 0,0"
       style="fill:#000000;fill-opacity:1;fill-rule:nonzero;stroke:none"
       aria-label="10"
       transform="matrix(1.3333333,0,0,1.3333333,228.60283,188.35028)" />
    <path
       id="path50"
       d="m 3.5734062,-1.5002194 c 0,0 -3.1054687,0 -3.1054687,0 0,0 0,-0.4687507 0,-0.4687507 0,0 3.1054687,0 3.1054687,0 z m 0,0"
       style="fill:#000000;fill-opacity:1;fill-rule:nonzero;stroke:none"
       aria-label="âˆ’"
       transform="matrix(1.3333333,0,0,1.3333312,245.09483,182.75029)" />
    <path
       id="path51"
       d="m 3.5399551,-3.468967 c 0,0.5976562 -0.3515625,1.1132812 -1.0429687,1.4765625 0,0 -0.6914063,0.375 -0.6914063,0.375 -0.5976562,0.3515625 -0.82031248,0.609375 -0.87890623,1.01953125 0,0 2.57812503,0 2.57812503,0 0,0 0,0.59765625 0,0.59765625 0,0 -3.26953128,0 -3.26953128,0 0.0585938,-1.078125 0.3515625,-1.546875 1.38281248,-2.1210938 0,0 0.6328125,-0.3632812 0.6328125,-0.3632812 0.4335938,-0.2460938 0.6679688,-0.5859375 0.6679688,-0.9726563 0,-0.5273437 -0.421875,-0.9257812 -0.9726563,-0.9257812 -0.5976562,0 -0.9375,0.3515625 -0.98437498,1.171875 0,0 -0.609375,0 -0.609375,0 0.0351563,-1.1835938 0.609375,-1.6992188 1.61718748,-1.6992188 0.9257813,0 1.5703125,0.609375 1.5703125,1.4414063 z m 0,0"
       style="fill:#000000;fill-opacity:1;fill-rule:nonzero;stroke:none"
       aria-label="2"
       transform="matrix(1.3333333,0,0,1.3333333,250.491,182.75029)" />
    <path
       id="path52"
       d="m 3.6444631,9.60875e-4 c 0,0 -0.9257813,0 -0.9257813,0 0,0 0,-5.296874975 0,-5.296874975 0,0 -1.6523437,0 -1.6523437,0 0,0 0,-0.6679688 0,-0.6679688 1.4296875,-0.1757812 1.640625,-0.3398437 1.96875,-1.4765625 0,0 0.609375,0 0.609375,0 z M 11.159112,-3.5849766 c 0,2.4492187 -0.855469,3.73828123 -2.4375005,3.73828123 -1.59375,0 -2.4257812,-1.28906253 -2.4257812,-3.79687503 0,-2.4960937 0.8203125,-3.796875 2.4257812,-3.796875 1.6171875,0 2.4375005,1.2773438 2.4375005,3.8554688 z m -0.9375,-0.082031 c 0,-1.9921875 -0.492188,-2.953125 -1.5000005,-2.953125 -0.9960937,0 -1.4882812,0.9492188 -1.4882812,2.9882813 0,2.0390625 0.4921875,3.02343748 1.4765625,3.02343748 1.0195312,0 1.5117192,-0.94921878 1.5117192,-3.05859378 z m 0,0"
       style="fill:#000000;fill-opacity:1;fill-rule:nonzero;stroke:none"
       aria-label="10"
       transform="matrix(1.3333333,0,0,1.3333333,284.71493,188.35028)" />
    <path
       id="path53"
       d="m 3.5743102,-1.500222 c 0,0 -3.10546876,0 -3.10546876,0 0,0 0,-0.4687515 0,-0.4687515 0,0 3.10546876,0 3.10546876,0 z m 0,0"
       style="fill:#000000;fill-opacity:1;fill-rule:nonzero;stroke:none"
       aria-label="âˆ’"
       transform="matrix(1.3333333,0,0,1.3333289,301.20691,182.75029)" />
    <path
       id="path54"
       d="m 2.4011996,-2.17e-4 c 0,0 -0.609375,0 -0.609375,0 0,0 0,-3.4921875 0,-3.4921875 0,0 -1.08984373,0 -1.08984373,0 0,0 0,-0.4453125 0,-0.4453125 0.94921873,-0.1171875 1.07812503,-0.2226563 1.30078123,-0.9726563 0,0 0.3984375,0 0.3984375,0 z m 0,0"
       style="fill:#000000;fill-opacity:1;fill-rule:nonzero;stroke:none"
       aria-label="1"
       transform="matrix(1.3333333,0,0,1.3333333,306.60309,182.75029)" />
    <path
       id="path55"
       d="m 5.3674962,-4.2782079 c 0,-0.2460938 -0.2226563,-0.2460938 -0.421875,-0.2460938 H 2.0042149 c -0.2109375,0 -0.6210937,0 -1.07812496,0.4921875 -0.3515625,0.375 -0.64453125,0.8789063 -0.64453125,0.9492188 0,0 0,0.1054687 0.12890625,0.1054687 0.0820313,0 0.10546875,-0.046875 0.1640625,-0.1289062 C 1.0901524,-3.9149267 1.6878087,-3.9149267 1.9104649,-3.9149267 h 0.8671875 l -1.0195312,3.36328126 c -0.046875,0.12890625 -0.1054688,0.3515625 -0.1054688,0.3984375 0,0.10546875 0.070312,0.28125 0.3046875,0.28125 0.3398438,0 0.3984375,-0.29296875 0.421875,-0.45703125 l 0.703125,-3.58593751 h 1.7695313 c 0.140625,0 0.515625,0 0.515625,-0.3632812 z m 0,0"
       style="fill:#000000;fill-opacity:1;fill-rule:nonzero;stroke:none"
       aria-label="ðœ"
       transform="matrix(0,-1.3333333,1.3333333,0,79.715996,104.05901)" />
    <path
       id="path56"
       d="m 5.3194423,-3.5871963 c 0,2.4492187 -0.8554687,3.73828124 -2.4375,3.73828124 -1.59375,0 -2.42578124,-1.28906254 -2.42578124,-3.79687504 0,-2.4960937 0.82031254,-3.796875 2.42578124,-3.796875 1.6171875,0 2.4375,1.2773438 2.4375,3.8554688 z m -0.9375,-0.082031 c 0,-1.9921875 -0.4921875,-2.953125 -1.5,-2.953125 -0.9960937,0 -1.4882812,0.9492188 -1.4882812,2.9882813 0,2.0390625 0.4921875,3.02343749 1.4765625,3.02343749 1.0195312,0 1.5117187,-0.94921879 1.5117187,-3.05859379 z m 0,0"
       style="fill:#000000;fill-opacity:1;fill-rule:nonzero;stroke:none"
       aria-label="0"
       transform="matrix(1.3333333,0,0,1.3333333,95.216004,148.16183)" />
    <path
       id="path57"
       d="m 3.6457276,-5.4906219e-4 c 0,0 -0.9257813,0 -0.9257813,0 0,0 0,-5.29687193781 0,-5.29687193781 0,0 -1.6523437,0 -1.6523437,0 0,0 0,-0.6679684 0,-0.6679684 1.4296875,-0.1757812 1.640625,-0.3398436 1.96875,-1.4765617 0,0 0.609375,0 0.609375,0 z M 11.157446,-3.5864845 c 0,2.4492173 -0.855468,3.7382791 -2.4374997,3.7382791 -1.59375,0 -2.4257812,-1.2890618 -2.4257812,-3.7968728 0,-2.4960924 0.8203125,-3.7968729 2.4257812,-3.7968729 1.6171877,0 2.4374997,1.2773431 2.4374997,3.8554666 z m -0.9375,-0.082031 c 0,-1.9921864 -0.4921872,-2.9531233 -1.4999997,-2.9531233 -0.9960937,0 -1.4882812,0.9492182 -1.4882812,2.9882795 0,2.0390613 0.4921875,3.02343579 1.4765625,3.02343579 1.0195312,0 1.5117184,-0.94921819 1.5117184,-3.05859199 z m 0,0"
       style="fill:#000000;fill-opacity:1;fill-rule:nonzero;stroke:none"
       aria-label="10"
       transform="matrix(1.3333333,0,0,1.3333341,87.431999,109.92651)" />
    <path
       id="path58"
       d="m 5.3683838,-5.2615811 c 0,0.9140625 -0.5390625,1.6875 -1.5820312,2.25 0,0 -1.0429688,0.5625 -1.0429688,0.5625 -0.9140625,0.5390625 -1.2539062,0.9257813 -1.3476562,1.53515629 0,0 3.9140625,0 3.9140625,0 0,0 0,0.9140624975 0,0.9140624975 0,0 -4.95703129,0 -4.95703129,0 C 0.44650881,-1.6404873 0.89182131,-2.3436123 2.4504151,-3.2225186 c 0,0 0.9609375,-0.5507812 0.9609375,-0.5507812 0.6679687,-0.375 1.0078125,-0.8789063 1.0078125,-1.4648438 0,-0.796875 -0.6328125,-1.3945312 -1.4648438,-1.3945312 -0.9140625,0 -1.4296875,0.5273437 -1.5,1.7695312 0,0 -0.92578124,0 -0.92578124,0 0.046875,-1.8046875 0.93750004,-2.578125 2.44921874,-2.578125 1.4179688,0 2.390625,0.9257813 2.390625,2.1796875 z m 5.7890622,1.6757813 c 0,2.4492187 -0.855468,3.73828124 -2.4374997,3.73828124 -1.59375,0 -2.4257812,-1.28906254 -2.4257812,-3.79687504 0,-2.4960937 0.8203125,-3.796875 2.4257812,-3.796875 1.6171877,0 2.4374997,1.2773438 2.4374997,3.8554688 z m -0.9375,-0.082031 c 0,-1.9921875 -0.4921872,-2.953125 -1.4999997,-2.953125 -0.9960937,0 -1.4882812,0.9492188 -1.4882812,2.9882813 0,2.0390625 0.4921875,3.02343749 1.4765625,3.02343749 1.0195312,0 1.5117184,-0.94921879 1.5117184,-3.05859379 z m 0,0"
       style="fill:#000000;fill-opacity:1;fill-rule:nonzero;stroke:none"
       aria-label="20"
       transform="matrix(1.3333333,0,0,1.3333333,87.431999,71.691223)" />
    <path
       id="path59"
       d="m 84.75,27 h 159 v 97.5 h -159 z"
       style="fill:none;fill-opacity:1;fill-rule:nonzero;stroke:none"
       transform="scale(1.3333333)" />
    <path
       id="path60"
       d="M 97.418,124.5 V 27"
       style="fill:none;stroke:#000000;stroke-width:0.75;stroke-linecap:butt;stroke-linejoin:miter;stroke-miterlimit:1.1547;stroke-dasharray:none;stroke-opacity:0.12"
       transform="scale(1.3333333)" />
    <path
       id="path61"
       d="M 139.504,124.5 V 27"
       style="fill:none;stroke:#000000;stroke-width:0.75;stroke-linecap:butt;stroke-linejoin:miter;stroke-miterlimit:1.1547;stroke-dasharray:none;stroke-opacity:0.12"
       transform="scale(1.3333333)" />
    <path
       id="path62"
       d="M 181.586,124.5 V 27"
       style="fill:none;stroke:#000000;stroke-width:0.75;stroke-linecap:butt;stroke-linejoin:miter;stroke-miterlimit:1.1547;stroke-dasharray:none;stroke-opacity:0.12"
       transform="scale(1.3333333)" />
    <path
       id="path63"
       d="M 223.672,124.5 V 27"
       style="fill:none;stroke:#000000;stroke-width:0.75;stroke-linecap:butt;stroke-linejoin:miter;stroke-miterlimit:1.1547;stroke-dasharray:none;stroke-opacity:0.12"
       transform="scale(1.3333333)" />
    <path
       id="path64"
       d="M 95.695,124.5 V 27"
       style="fill:none;stroke:#000000;stroke-width:0.75;stroke-linecap:butt;stroke-linejoin:miter;stroke-miterlimit:1.1547;stroke-dasharray:none;stroke-opacity:0.05"
       transform="scale(1.3333333)" />
    <path
       id="path65"
       d="M 93.793,124.5 V 27"
       style="fill:none;stroke:#000000;stroke-width:0.75;stroke-linecap:butt;stroke-linejoin:miter;stroke-miterlimit:1.1547;stroke-dasharray:none;stroke-opacity:0.05"
       transform="scale(1.3333333)" />
    <path
       id="path66"
       d="M 91.668,124.5 V 27"
       style="fill:none;stroke:#000000;stroke-width:0.75;stroke-linecap:butt;stroke-linejoin:miter;stroke-miterlimit:1.1547;stroke-dasharray:none;stroke-opacity:0.05"
       transform="scale(1.3333333)" />
    <path
       id="path67"
       d="M 89.262,124.5 V 27"
       style="fill:none;stroke:#000000;stroke-width:0.75;stroke-linecap:butt;stroke-linejoin:miter;stroke-miterlimit:1.1547;stroke-dasharray:none;stroke-opacity:0.05"
       transform="scale(1.3333333)" />
    <path
       id="path68"
       d="M 86.492,124.5 V 27"
       style="fill:none;stroke:#000000;stroke-width:0.75;stroke-linecap:butt;stroke-linejoin:miter;stroke-miterlimit:1.1547;stroke-dasharray:none;stroke-opacity:0.05"
       transform="scale(1.3333333)" />
    <path
       id="path69"
       d="M 109.148,124.5 V 27"
       style="fill:none;stroke:#000000;stroke-width:0.75;stroke-linecap:butt;stroke-linejoin:miter;stroke-miterlimit:1.1547;stroke-dasharray:none;stroke-opacity:0.05"
       transform="scale(1.3333333)" />
    <path
       id="path70"
       d="M 116.238,124.5 V 27"
       style="fill:none;stroke:#000000;stroke-width:0.75;stroke-linecap:butt;stroke-linejoin:miter;stroke-miterlimit:1.1547;stroke-dasharray:none;stroke-opacity:0.05"
       transform="scale(1.3333333)" />
    <path
       id="path71"
       d="M 121.332,124.5 V 27"
       style="fill:none;stroke:#000000;stroke-width:0.75;stroke-linecap:butt;stroke-linejoin:miter;stroke-miterlimit:1.1547;stroke-dasharray:none;stroke-opacity:0.05"
       transform="scale(1.3333333)" />
    <path
       id="path72"
       d="M 125.309,124.5 V 27"
       style="fill:none;stroke:#000000;stroke-width:0.75;stroke-linecap:butt;stroke-linejoin:miter;stroke-miterlimit:1.1547;stroke-dasharray:none;stroke-opacity:0.05"
       transform="scale(1.3333333)" />
    <path
       id="path73"
       d="M 128.574,124.5 V 27"
       style="fill:none;stroke:#000000;stroke-width:0.75;stroke-linecap:butt;stroke-linejoin:miter;stroke-miterlimit:1.1547;stroke-dasharray:none;stroke-opacity:0.05"
       transform="scale(1.3333333)" />
    <path
       id="path74"
       d="M 131.348,124.5 V 27"
       style="fill:none;stroke:#000000;stroke-width:0.75;stroke-linecap:butt;stroke-linejoin:miter;stroke-miterlimit:1.1547;stroke-dasharray:none;stroke-opacity:0.05"
       transform="scale(1.3333333)" />
    <path
       id="path75"
       d="M 133.75,124.5 V 27"
       style="fill:none;stroke:#000000;stroke-width:0.75;stroke-linecap:butt;stroke-linejoin:miter;stroke-miterlimit:1.1547;stroke-dasharray:none;stroke-opacity:0.05"
       transform="scale(1.3333333)" />
    <path
       id="path76"
       d="M 135.875,124.5 V 27"
       style="fill:none;stroke:#000000;stroke-width:0.75;stroke-linecap:butt;stroke-linejoin:miter;stroke-miterlimit:1.1547;stroke-dasharray:none;stroke-opacity:0.05"
       transform="scale(1.3333333)" />
    <path
       id="path77"
       d="M 137.777,124.5 V 27"
       style="fill:none;stroke:#000000;stroke-width:0.75;stroke-linecap:butt;stroke-linejoin:miter;stroke-miterlimit:1.1547;stroke-dasharray:none;stroke-opacity:0.05"
       transform="scale(1.3333333)" />
    <path
       id="path78"
       d="M 151.234,124.5 V 27"
       style="fill:none;stroke:#000000;stroke-width:0.75;stroke-linecap:butt;stroke-linejoin:miter;stroke-miterlimit:1.1547;stroke-dasharray:none;stroke-opacity:0.05"
       transform="scale(1.3333333)" />
    <path
       id="path79"
       d="M 158.32,124.5 V 27"
       style="fill:none;stroke:#000000;stroke-width:0.75;stroke-linecap:butt;stroke-linejoin:miter;stroke-miterlimit:1.1547;stroke-dasharray:none;stroke-opacity:0.05"
       transform="scale(1.3333333)" />
    <path
       id="path80"
       d="M 163.414,124.5 V 27"
       style="fill:none;stroke:#000000;stroke-width:0.75;stroke-linecap:butt;stroke-linejoin:miter;stroke-miterlimit:1.1547;stroke-dasharray:none;stroke-opacity:0.05"
       transform="scale(1.3333333)" />
    <path
       id="path81"
       d="M 167.395,124.5 V 27"
       style="fill:none;stroke:#000000;stroke-width:0.75;stroke-linecap:butt;stroke-linejoin:miter;stroke-miterlimit:1.1547;stroke-dasharray:none;stroke-opacity:0.05"
       transform="scale(1.3333333)" />
    <path
       id="path82"
       d="M 170.66,124.5 V 27"
       style="fill:none;stroke:#000000;stroke-width:0.75;stroke-linecap:butt;stroke-linejoin:miter;stroke-miterlimit:1.1547;stroke-dasharray:none;stroke-opacity:0.05"
       transform="scale(1.3333333)" />
    <path
       id="path83"
       d="M 173.43,124.5 V 27"
       style="fill:none;stroke:#000000;stroke-width:0.75;stroke-linecap:butt;stroke-linejoin:miter;stroke-miterlimit:1.1547;stroke-dasharray:none;stroke-opacity:0.05"
       transform="scale(1.3333333)" />
    <path
       id="path84"
       d="M 175.836,124.5 V 27"
       style="fill:none;stroke:#000000;stroke-width:0.75;stroke-linecap:butt;stroke-linejoin:miter;stroke-miterlimit:1.1547;stroke-dasharray:none;stroke-opacity:0.05"
       transform="scale(1.3333333)" />
    <path
       id="path85"
       d="M 177.961,124.5 V 27"
       style="fill:none;stroke:#000000;stroke-width:0.75;stroke-linecap:butt;stroke-linejoin:miter;stroke-miterlimit:1.1547;stroke-dasharray:none;stroke-opacity:0.05"
       transform="scale(1.3333333)" />
    <path
       id="path86"
       d="M 179.863,124.5 V 27"
       style="fill:none;stroke:#000000;stroke-width:0.75;stroke-linecap:butt;stroke-linejoin:miter;stroke-miterlimit:1.1547;stroke-dasharray:none;stroke-opacity:0.05"
       transform="scale(1.3333333)" />
    <path
       id="path87"
       d="M 193.316,124.5 V 27"
       style="fill:none;stroke:#000000;stroke-width:0.75;stroke-linecap:butt;stroke-linejoin:miter;stroke-miterlimit:1.1547;stroke-dasharray:none;stroke-opacity:0.05"
       transform="scale(1.3333333)" />
    <path
       id="path88"
       d="M 200.406,124.5 V 27"
       style="fill:none;stroke:#000000;stroke-width:0.75;stroke-linecap:butt;stroke-linejoin:miter;stroke-miterlimit:1.1547;stroke-dasharray:none;stroke-opacity:0.05"
       transform="scale(1.3333333)" />
    <path
       id="path89"
       d="M 205.5,124.5 V 27"
       style="fill:none;stroke:#000000;stroke-width:0.75;stroke-linecap:butt;stroke-linejoin:miter;stroke-miterlimit:1.1547;stroke-dasharray:none;stroke-opacity:0.05"
       transform="scale(1.3333333)" />
    <path
       id="path90"
       d="M 209.477,124.5 V 27"
       style="fill:none;stroke:#000000;stroke-width:0.75;stroke-linecap:butt;stroke-linejoin:miter;stroke-miterlimit:1.1547;stroke-dasharray:none;stroke-opacity:0.05"
       transform="scale(1.3333333)" />
    <path
       id="path91"
       d="M 212.746,124.5 V 27"
       style="fill:none;stroke:#000000;stroke-width:0.75;stroke-linecap:butt;stroke-linejoin:miter;stroke-miterlimit:1.1547;stroke-dasharray:none;stroke-opacity:0.05"
       transform="scale(1.3333333)" />
    <path
       id="path92"
       d="M 215.516,124.5 V 27"
       style="fill:none;stroke:#000000;stroke-width:0.75;stroke-linecap:butt;stroke-linejoin:miter;stroke-miterlimit:1.1547;stroke-dasharray:none;stroke-opacity:0.05"
       transform="scale(1.3333333)" />
    <path
       id="path93"
       d="M 217.918,124.5 V 27"
       style="fill:none;stroke:#000000;stroke-width:0.75;stroke-linecap:butt;stroke-linejoin:miter;stroke-miterlimit:1.1547;stroke-dasharray:none;stroke-opacity:0.05"
       transform="scale(1.3333333)" />
    <path
       id="path94"
       d="M 220.043,124.5 V 27"
       style="fill:none;stroke:#000000;stroke-width:0.75;stroke-linecap:butt;stroke-linejoin:miter;stroke-miterlimit:1.1547;stroke-dasharray:none;stroke-opacity:0.05"
       transform="scale(1.3333333)" />
    <path
       id="path95"
       d="M 221.945,124.5 V 27"
       style="fill:none;stroke:#000000;stroke-width:0.75;stroke-linecap:butt;stroke-linejoin:miter;stroke-miterlimit:1.1547;stroke-dasharray:none;stroke-opacity:0.05"
       transform="scale(1.3333333)" />
    <path
       id="path96"
       d="M 235.402,124.5 V 27"
       style="fill:none;stroke:#000000;stroke-width:0.75;stroke-linecap:butt;stroke-linejoin:miter;stroke-miterlimit:1.1547;stroke-dasharray:none;stroke-opacity:0.05"
       transform="scale(1.3333333)" />
    <path
       id="path97"
       d="M 242.488,124.5 V 27"
       style="fill:none;stroke:#000000;stroke-width:0.75;stroke-linecap:butt;stroke-linejoin:miter;stroke-miterlimit:1.1547;stroke-dasharray:none;stroke-opacity:0.05"
       transform="scale(1.3333333)" />
    <path
       id="path98"
       d="m 84.75,107.293 h 159"
       style="fill:none;stroke:#000000;stroke-width:0.75;stroke-linecap:butt;stroke-linejoin:miter;stroke-miterlimit:1.1547;stroke-dasharray:none;stroke-opacity:0.12"
       transform="scale(1.3333333)" />
    <path
       id="path99"
       d="m 84.75,78.617 h 159"
       style="fill:none;stroke:#000000;stroke-width:0.75;stroke-linecap:butt;stroke-linejoin:miter;stroke-miterlimit:1.1547;stroke-dasharray:none;stroke-opacity:0.12"
       transform="scale(1.3333333)" />
    <path
       id="path100"
       d="m 84.75,49.941 h 159"
       style="fill:none;stroke:#000000;stroke-width:0.75;stroke-linecap:butt;stroke-linejoin:miter;stroke-miterlimit:1.1547;stroke-dasharray:none;stroke-opacity:0.12"
       transform="scale(1.3333333)" />
    <path
       id="path101"
       d="m 93.672,256.875 v 3.75"
       style="fill:none;stroke:#000000;stroke-width:0.75;stroke-linecap:butt;stroke-linejoin:miter;stroke-miterlimit:1.1547;stroke-dasharray:none;stroke-opacity:1"
       transform="scale(1.3333333)" />
    <path
       id="path102"
       d="m 158.57,256.875 v 3.75"
       style="fill:none;stroke:#000000;stroke-width:0.75;stroke-linecap:butt;stroke-linejoin:miter;stroke-miterlimit:1.1547;stroke-dasharray:none;stroke-opacity:1"
       transform="scale(1.3333333)" />
    <path
       id="path103"
       d="m 223.469,256.875 v 3.75"
       style="fill:none;stroke:#000000;stroke-width:0.75;stroke-linecap:butt;stroke-linejoin:miter;stroke-miterlimit:1.1547;stroke-dasharray:none;stroke-opacity:1"
       transform="scale(1.3333333)" />
    <path
       id="path104"
       d="m 288.367,256.875 v 3.75"
       style="fill:none;stroke:#000000;stroke-width:0.75;stroke-linecap:butt;stroke-linejoin:miter;stroke-miterlimit:1.1547;stroke-dasharray:none;stroke-opacity:1"
       transform="scale(1.3333333)" />
    <path
       id="path105"
       d="m 353.266,256.875 v 3.75"
       style="fill:none;stroke:#000000;stroke-width:0.75;stroke-linecap:butt;stroke-linejoin:miter;stroke-miterlimit:1.1547;stroke-dasharray:none;stroke-opacity:1"
       transform="scale(1.3333333)" />
    <path
       id="path106"
       d="m 44.625,227.309 h -3.75"
       style="fill:none;stroke:#000000;stroke-width:0.75;stroke-linecap:butt;stroke-linejoin:miter;stroke-miterlimit:1.1547;stroke-dasharray:none;stroke-opacity:1"
       transform="scale(1.3333333)" />
    <path
       id="path107"
       d="m 44.625,145.641 h -3.75"
       style="fill:none;stroke:#000000;stroke-width:0.75;stroke-linecap:butt;stroke-linejoin:miter;stroke-miterlimit:1.1547;stroke-dasharray:none;stroke-opacity:1"
       transform="scale(1.3333333)" />
    <path
       id="path108"
       d="m 44.625,63.969 h -3.75"
       style="fill:none;stroke:#000000;stroke-width:0.75;stroke-linecap:butt;stroke-linejoin:miter;stroke-miterlimit:1.1547;stroke-dasharray:none;stroke-opacity:1"
       transform="scale(1.3333333)" />
    <path
       id="path109"
       d="m 97.418,124.875 v 3.75"
       style="fill:none;stroke:#000000;stroke-width:0.75;stroke-linecap:butt;stroke-linejoin:miter;stroke-miterlimit:1.1547;stroke-dasharray:none;stroke-opacity:1"
       transform="scale(1.3333333)" />
    <path
       id="path110"
       d="m 139.504,124.875 v 3.75"
       style="fill:none;stroke:#000000;stroke-width:0.75;stroke-linecap:butt;stroke-linejoin:miter;stroke-miterlimit:1.1547;stroke-dasharray:none;stroke-opacity:1"
       transform="scale(1.3333333)" />
    <path
       id="path111"
       d="m 181.586,124.875 v 3.75"
       style="fill:none;stroke:#000000;stroke-width:0.75;stroke-linecap:butt;stroke-linejoin:miter;stroke-miterlimit:1.1547;stroke-dasharray:none;stroke-opacity:1"
       transform="scale(1.3333333)" />
    <path
       id="path112"
       d="m 223.672,124.875 v 3.75"
       style="fill:none;stroke:#000000;stroke-width:0.75;stroke-linecap:butt;stroke-linejoin:miter;stroke-miterlimit:1.1547;stroke-dasharray:none;stroke-opacity:1"
       transform="scale(1.3333333)" />
    <path
       id="path113"
       d="m 84.375,107.293 h -3.75"
       style="fill:none;stroke:#000000;stroke-width:0.75;stroke-linecap:butt;stroke-linejoin:miter;stroke-miterlimit:1.1547;stroke-dasharray:none;stroke-opacity:1"
       transform="scale(1.3333333)" />
    <path
       id="path114"
       d="m 84.375,78.617 h -3.75"
       style="fill:none;stroke:#000000;stroke-width:0.75;stroke-linecap:butt;stroke-linejoin:miter;stroke-miterlimit:1.1547;stroke-dasharray:none;stroke-opacity:1"
       transform="scale(1.3333333)" />
    <path
       id="path115"
       d="m 84.375,49.941 h -3.75"
       style="fill:none;stroke:#000000;stroke-width:0.75;stroke-linecap:butt;stroke-linejoin:miter;stroke-miterlimit:1.1547;stroke-dasharray:none;stroke-opacity:1"
       transform="scale(1.3333333)" />
    <path
       id="path116"
       d="m 139.504,27 h 12.668 v 97.5 h -12.668 z"
       style="fill:#0072b2;fill-opacity:0.4;fill-rule:nonzero;stroke:none"
       transform="scale(1.3333333)"
       clip-path="url(#clipPath117)" />
    <path
       id="path118"
       d="m 164.84,27 h 12.668 v 97.5 H 164.84 Z"
       style="fill:#e69f00;fill-opacity:0.4;fill-rule:nonzero;stroke:none"
       transform="scale(1.3333333)"
       clip-path="url(#clipPath119)" />
    <path
       id="path120"
       d="m 193.316,27 h 13.605 v 97.5 h -13.605 z"
       style="fill:#009e73;fill-opacity:0.4;fill-rule:nonzero;stroke:none"
       transform="scale(1.3333333)"
       clip-path="url(#clipPath121)" />
    <path
       id="path122"
       d="m 55.336,27 h 42.086 v 97.5 H 55.336 Z"
       style="fill:#cc79a7;fill-opacity:0.4;fill-rule:nonzero;stroke:none"
       transform="scale(1.3333333)"
       clip-path="url(#clipPath123)" />
    <path
       id="path124"
       d="m 84.75,34.82 c 15.27452,0.08753 31.41463,0.840405 44.50166,9.710795 15.62498,8.798236 31.61439,17.1398 46.33034,27.426205 8.58847,5.828667 13.13826,15.664754 15.156,25.566 1.83416,5.57334 1.7621,12.25112 5.547,16.969 2.68983,1.45829 4.77999,-2.08473 6.59,-3.531 2.46909,-2.5782 5.94094,-5.97047 9.801,-4.215 2.90311,1.30818 6.08652,-0.68672 8.926,0.906 2.22007,0.57829 4.27992,-1.31199 6.496,-0.422 2.49819,0.31822 4.97355,0.0143 7.398,0.004 2.74095,0.20718 5.52935,-0.0208 8.254,0.055"
       style="fill:none;stroke:#0072b2;stroke-width:1.5;stroke-linecap:butt;stroke-linejoin:miter;stroke-miterlimit:2;stroke-dasharray:none;stroke-opacity:1"
       clip-path="url(#clipPath125)"
       transform="scale(1.3333333)" />
    <path
       id="path126"
       d="m 84.75,44.82 c 15.46364,0.06233 31.54999,0.660277 45.418,8.348 15.9967,7.371522 32.32723,14.234074 47.566,23.113 7.97005,4.43649 13.20724,12.487201 15.243,21.262 1.96972,5.14837 1.99935,11.46794 5.718,15.785 2.72224,1.4687 4.98746,-1.77227 6.977,-3.203 2.50817,-2.3326 5.98931,-4.66901 9.512,-3.074 3.09668,0.83131 6.33582,-1.06914 9.281,0.617 2.1161,0.25827 4.07523,-1.03925 6.226,-0.402 2.35772,-0.12118 4.5572,0.32153 6.836,-0.059 2.06806,0.19445 4.18485,0.0782 6.223,0.074"
       style="fill:none;stroke:#0072b2;stroke-width:1.125;stroke-linecap:butt;stroke-linejoin:miter;stroke-miterlimit:2;stroke-dasharray:3.375, 1.125;stroke-dashoffset:0;stroke-opacity:1"
       clip-path="url(#clipPath127)"
       transform="scale(1.3333333)" />
    <path
       id="path128"
       d="m 44.625,256.5 h 318.75"
       style="fill:none;stroke:#000000;stroke-width:0.75;stroke-linecap:butt;stroke-linejoin:miter;stroke-miterlimit:1.1547;stroke-dasharray:none;stroke-opacity:1"
       transform="scale(1.3333333)" />
    <path
       id="path129"
       d="M 45,256.875 V 11.625"
       style="fill:none;stroke:#000000;stroke-width:0.75;stroke-linecap:butt;stroke-linejoin:miter;stroke-miterlimit:1.1547;stroke-dasharray:none;stroke-opacity:1"
       transform="scale(1.3333333)" />
    <path
       id="path130"
       d="m 44.625,12 h 318.75"
       style="fill:none;stroke:#000000;stroke-width:0.75;stroke-linecap:butt;stroke-linejoin:miter;stroke-miterlimit:1.1547;stroke-dasharray:none;stroke-opacity:1"
       transform="scale(1.3333333)" />
    <path
       id="path131"
       d="M 363,256.875 V 11.625"
       style="fill:none;stroke:#000000;stroke-width:0.75;stroke-linecap:butt;stroke-linejoin:miter;stroke-miterlimit:1.1547;stroke-dasharray:none;stroke-opacity:1"
       transform="scale(1.3333333)" />
    <path
       id="path132"
       d="m 84.375,124.5 h 159.75"
       style="fill:none;stroke:#000000;stroke-width:0.75;stroke-linecap:butt;stroke-linejoin:miter;stroke-miterlimit:1.1547;stroke-dasharray:none;stroke-opacity:1"
       transform="scale(1.3333333)" />
    <path
       id="path133"
       d="M 84.75,124.875 V 26.625"
       style="fill:none;stroke:#000000;stroke-width:0.75;stroke-linecap:butt;stroke-linejoin:miter;stroke-miterlimit:1.1547;stroke-dasharray:none;stroke-opacity:1"
       transform="scale(1.3333333)" />
    <path
       id="path134"
       d="m 84.375,27 h 159.75"
       style="fill:none;stroke:#000000;stroke-width:0.75;stroke-linecap:butt;stroke-linejoin:miter;stroke-miterlimit:1.1547;stroke-dasharray:none;stroke-opacity:1"
       transform="scale(1.3333333)" />
    <path
       id="path135"
       d="M 243.75,124.875 V 26.625"
       style="fill:none;stroke:#000000;stroke-width:0.75;stroke-linecap:butt;stroke-linejoin:miter;stroke-miterlimit:1.1547;stroke-dasharray:none;stroke-opacity:1"
       transform="scale(1.3333333)" />
  </g>
</svg>
